<svg version="1.1" id="Layer_1" xmlns="http://www.w3.org/2000/svg" xmlns:xlink="http://www.w3.org/1999/xlink" x="0px" y="0px"
	 width="100%" viewBox="0 0 480 480" enable-background="new 0 0 480 480" xml:space="preserve">
<path fill="#FFFFFE" opacity="1.000000" stroke="none" 
	d="
M319.000000,481.000000 
	C212.666672,481.000000 106.833336,481.000000 1.000000,481.000000 
	C1.000000,321.000000 1.000000,161.000000 1.000000,1.000000 
	C161.000000,1.000000 321.000000,1.000000 481.000000,1.000000 
	C481.000000,161.000000 481.000000,321.000000 481.000000,481.000000 
	C427.166656,481.000000 373.333344,481.000000 319.000000,481.000000 
M109.329735,57.280186 
	C94.611168,56.718224 81.145340,67.617584 79.640869,82.777328 
	C79.214256,87.076012 78.758873,91.397125 78.753632,95.708481 
	C78.692215,146.160690 78.714256,196.612991 78.714256,247.065277 
	C78.714249,293.398407 78.680191,339.731598 78.765259,386.064575 
	C78.774071,390.867554 79.424362,395.675690 79.891922,400.470245 
	C81.294556,414.853851 97.889862,427.498444 111.734779,424.215698 
	C118.439171,422.625977 124.974915,419.924011 131.238724,416.983643 
	C138.281128,413.677765 144.965271,409.595764 151.741028,405.738586 
	C157.916489,402.223145 163.974533,398.501740 170.141922,394.971741 
	C176.807510,391.156525 183.592072,387.547760 190.231415,383.688385 
	C201.398224,377.197235 212.461487,370.527924 223.627304,364.035065 
	C229.683228,360.513580 235.919067,357.301208 241.970352,353.772125 
	C251.323349,348.317474 260.533447,342.616943 269.905914,337.196716 
	C278.325195,332.327698 286.942078,327.800446 295.361481,322.931671 
	C304.733612,317.512024 313.952087,311.827393 323.293060,306.352966 
	C329.425415,302.758972 335.689636,299.390381 341.834869,295.817810 
	C350.122253,290.999878 358.270966,285.938538 366.626434,281.243683 
	C377.877258,274.921997 389.499054,269.259613 398.431854,259.483795 
	C407.318787,249.758240 407.372406,231.985199 398.370422,222.527435 
	C392.977234,216.861206 387.147369,212.069763 379.893463,208.566696 
	C370.622040,204.089294 362.093536,198.086578 353.175690,192.859222 
	C347.255066,189.388733 341.156281,186.221909 335.239349,182.745422 
	C326.614014,177.677658 318.152252,172.329254 309.488159,167.330338 
	C300.346924,162.056152 290.965881,157.196564 281.842834,151.892227 
	C270.936859,145.551224 260.228119,138.871964 249.369308,132.448456 
	C239.374496,126.536049 229.332809,120.700287 219.240692,114.955643 
	C208.383743,108.775658 197.430527,102.765114 186.544312,96.636238 
	C175.344543,90.330856 164.166611,83.986580 152.995911,77.629814 
	C147.914536,74.738213 142.621872,72.131134 137.869766,68.766815 
	C129.460648,62.813442 120.259521,59.088181 109.329735,57.280186 
z"/>
<path fill="#FF5453" opacity="1.000000" stroke="none" 
	d="
M109.760239,57.289787 
	C120.259521,59.088181 129.460648,62.813442 137.869766,68.766815 
	C142.621872,72.131134 147.914536,74.738213 152.995911,77.629814 
	C164.166611,83.986580 175.344543,90.330856 186.544312,96.636238 
	C197.430527,102.765114 208.383743,108.775658 219.240692,114.955643 
	C229.332809,120.700287 239.374496,126.536049 249.369308,132.448456 
	C260.228119,138.871964 270.936859,145.551224 281.842834,151.892227 
	C290.965881,157.196564 300.346924,162.056152 309.488159,167.330338 
	C318.152252,172.329254 326.614014,177.677658 335.239349,182.745422 
	C341.156281,186.221909 347.255066,189.388733 353.175690,192.859222 
	C362.093536,198.086578 370.622040,204.089294 379.893463,208.566696 
	C387.147369,212.069763 392.977234,216.861206 398.370422,222.527435 
	C407.372406,231.985199 407.318787,249.758240 398.431854,259.483795 
	C389.499054,269.259613 377.877258,274.921997 366.626434,281.243683 
	C358.270966,285.938538 350.122253,290.999878 341.834869,295.817810 
	C335.689636,299.390381 329.425415,302.758972 323.293060,306.352966 
	C313.952087,311.827393 304.733612,317.512024 295.361481,322.931671 
	C286.942078,327.800446 278.325195,332.327698 269.905914,337.196716 
	C260.533447,342.616943 251.323349,348.317474 241.970352,353.772125 
	C235.919067,357.301208 229.683228,360.513580 223.627304,364.035065 
	C212.461487,370.527924 201.398224,377.197235 190.231415,383.688385 
	C183.592072,387.547760 176.807510,391.156525 170.141922,394.971741 
	C163.974533,398.501740 157.916489,402.223145 151.741028,405.738586 
	C144.965271,409.595764 138.281128,413.677765 131.238724,416.983643 
	C124.974915,419.924011 118.439171,422.625977 111.734779,424.215698 
	C97.889862,427.498444 81.294556,414.853851 79.891922,400.470245 
	C79.424362,395.675690 78.774071,390.867554 78.765259,386.064575 
	C78.680191,339.731598 78.714249,293.398407 78.714256,247.065277 
	C78.714256,196.612991 78.692215,146.160690 78.753632,95.708481 
	C78.758873,91.397125 79.214256,87.076012 79.640869,82.777328 
	C81.145340,67.617584 94.611168,56.718224 109.760239,57.289787 
M208.211624,233.343216 
	C205.503098,213.009308 188.112579,197.321243 167.536957,197.056198 
	C149.891815,196.828903 132.241516,196.993454 114.593559,197.017715 
	C113.501801,197.019211 112.410439,197.309387 111.349777,197.460846 
	C111.349777,244.678299 111.349777,291.567474 111.349777,338.499084 
	C112.019066,338.700073 112.475296,338.957031 112.931450,338.956909 
	C136.072968,338.950439 159.242615,339.632111 182.348877,338.716400 
	C211.268021,337.570251 229.883942,305.584412 216.991669,279.647461 
	C213.553757,272.730988 207.802231,266.964569 202.781448,260.225220 
	C206.937180,252.895035 210.109665,244.104965 208.211624,233.343216 
M240.599365,206.997299 
	C237.997879,206.633835 235.396378,206.270355 232.351044,205.844864 
	C231.948898,211.116440 231.580154,215.950150 231.201614,220.912247 
	C238.443100,221.408768 245.004837,221.858688 252.777893,222.391678 
	C246.249268,228.035583 240.561401,232.952667 234.370010,238.305023 
	C238.455017,242.065887 242.092224,245.414490 245.957474,248.973038 
	C251.163818,243.244965 256.470215,237.406815 261.934570,231.394882 
	C267.541534,237.710022 272.671539,243.487991 278.018219,249.509964 
	C281.812500,245.388260 285.138733,241.774979 288.639130,237.972504 
	C282.566589,232.693756 276.983704,227.840668 270.711639,222.388489 
	C278.412720,221.848801 285.098724,221.380249 292.266296,220.877960 
	C291.851715,215.674194 291.476379,210.962967 291.066742,205.821075 
	C283.169952,206.951935 275.858673,207.998947 268.573853,209.042160 
	C268.573853,200.856247 268.573853,193.133545 268.573853,185.392578 
	C263.797241,185.392578 259.087646,185.392578 254.688324,185.392578 
	C254.688324,193.394989 254.688324,200.995377 254.688324,209.064911 
	C250.241638,208.393524 245.857758,207.731613 240.599365,206.997299 
z"/>
<path fill="#FFFDFD" opacity="1.000000" stroke="none" 
	d="
M208.296326,233.770447 
	C210.109665,244.104965 206.937180,252.895035 202.781448,260.225220 
	C207.802231,266.964569 213.553757,272.730988 216.991669,279.647461 
	C229.883942,305.584412 211.268021,337.570251 182.348877,338.716400 
	C159.242615,339.632111 136.072968,338.950439 112.931450,338.956909 
	C112.475296,338.957031 112.019066,338.700073 111.349777,338.499084 
	C111.349777,291.567474 111.349777,244.678299 111.349777,197.460846 
	C112.410439,197.309387 113.501801,197.019211 114.593559,197.017715 
	C132.241516,196.993454 149.891815,196.828903 167.536957,197.056198 
	C188.112579,197.321243 205.503098,213.009308 208.296326,233.770447 
M195.212082,303.435303 
	C199.153946,290.360229 192.227997,280.792999 178.654831,280.628296 
	C173.168045,280.561707 167.679825,280.614044 162.192245,280.613617 
	C153.933807,280.612946 145.675369,280.613434 137.264130,280.613434 
	C137.264130,291.744568 137.264130,302.273987 137.264130,313.143341 
	C151.381821,313.143341 165.159958,313.051056 178.936005,313.181183 
	C186.117554,313.249054 191.388062,310.319794 195.212082,303.435303 
M138.039688,222.543121 
	C137.504837,233.260010 136.970001,243.976898 136.422485,254.947983 
	C147.937790,254.947983 158.228638,255.145294 168.507385,254.877777 
	C175.224625,254.702942 180.170624,251.205994 182.840500,244.981400 
	C187.496658,234.125916 179.573380,222.829102 166.869080,222.453979 
	C157.570038,222.179413 148.256088,222.410126 138.039688,222.543121 
z"/>
<path fill="#FFFCFC" opacity="1.000000" stroke="none" 
	d="
M241.036621,207.033508 
	C245.857758,207.731613 250.241638,208.393524 254.688324,209.064911 
	C254.688324,200.995377 254.688324,193.394989 254.688324,185.392578 
	C259.087646,185.392578 263.797241,185.392578 268.573853,185.392578 
	C268.573853,193.133545 268.573853,200.856247 268.573853,209.042160 
	C275.858673,207.998947 283.169952,206.951935 291.066742,205.821075 
	C291.476379,210.962967 291.851715,215.674194 292.266296,220.877960 
	C285.098724,221.380249 278.412720,221.848801 270.711639,222.388489 
	C276.983704,227.840668 282.566589,232.693756 288.639130,237.972504 
	C285.138733,241.774979 281.812500,245.388260 278.018219,249.509964 
	C272.671539,243.487991 267.541534,237.710022 261.934570,231.394882 
	C256.470215,237.406815 251.163818,243.244965 245.957474,248.973038 
	C242.092224,245.414490 238.455017,242.065887 234.370010,238.305023 
	C240.561401,232.952667 246.249268,228.035583 252.777893,222.391678 
	C245.004837,221.858688 238.443100,221.408768 231.201614,220.912247 
	C231.580154,215.950150 231.948898,211.116440 232.351044,205.844864 
	C235.396378,206.270355 237.997879,206.633835 241.036621,207.033508 
z"/>
<path fill="#FF5454" opacity="1.000000" stroke="none" 
	d="
M195.071655,303.788330 
	C191.388062,310.319794 186.117554,313.249054 178.936005,313.181183 
	C165.159958,313.051056 151.381821,313.143341 137.264130,313.143341 
	C137.264130,302.273987 137.264130,291.744568 137.264130,280.613434 
	C145.675369,280.613434 153.933807,280.612946 162.192245,280.613617 
	C167.679825,280.614044 173.168045,280.561707 178.654831,280.628296 
	C192.227997,280.792999 199.153946,290.360229 195.071655,303.788330 
z"/>
<path fill="#FF5555" opacity="1.000000" stroke="none" 
	d="
M138.494232,222.479370 
	C148.256088,222.410126 157.570038,222.179413 166.869080,222.453979 
	C179.573380,222.829102 187.496658,234.125916 182.840500,244.981400 
	C180.170624,251.205994 175.224625,254.702942 168.507385,254.877777 
	C158.228638,255.145294 147.937790,254.947983 136.422485,254.947983 
	C136.970001,243.976898 137.504837,233.260010 138.494232,222.479370 
z"/>
</svg>